<mxfile host="app.diagrams.net" modified="2020-12-03T00:28:19.813Z" agent="5.0 (Windows NT 10.0; Win64; x64) AppleWebKit/537.36 (KHTML, like Gecko) Chrome/87.0.4280.67 Safari/537.36" etag="u259229q3Psd8dZn7i3H" version="13.10.6" type="github">
  <diagram id="Gt5GSjOCIcwdCIrNYP4Z" name="Page-1">
    <mxGraphModel dx="1102" dy="598" grid="1" gridSize="10" guides="1" tooltips="1" connect="1" arrows="1" fold="1" page="1" pageScale="1" pageWidth="827" pageHeight="1169" math="0" shadow="0">
      <root>
        <mxCell id="0" />
        <mxCell id="1" parent="0" />
        <mxCell id="UXfJRt7zyH2M72T4J1LY-1" value="" style="rounded=0;whiteSpace=wrap;html=1;" vertex="1" parent="1">
          <mxGeometry x="30" y="20" width="440" height="580" as="geometry" />
        </mxCell>
        <mxCell id="UXfJRt7zyH2M72T4J1LY-2" value="" style="rounded=0;whiteSpace=wrap;html=1;" vertex="1" parent="1">
          <mxGeometry x="540" y="115" width="220" height="390" as="geometry" />
        </mxCell>
        <mxCell id="UXfJRt7zyH2M72T4J1LY-20" value="" style="rounded=0;whiteSpace=wrap;html=1;" vertex="1" parent="1">
          <mxGeometry x="50" y="40" width="120" height="60" as="geometry" />
        </mxCell>
        <mxCell id="UXfJRt7zyH2M72T4J1LY-21" value="" style="rounded=0;whiteSpace=wrap;html=1;" vertex="1" parent="1">
          <mxGeometry x="240" y="40" width="210" height="30" as="geometry" />
        </mxCell>
        <mxCell id="UXfJRt7zyH2M72T4J1LY-22" value="" style="rounded=0;whiteSpace=wrap;html=1;" vertex="1" parent="1">
          <mxGeometry x="30" y="130" width="440" height="110" as="geometry" />
        </mxCell>
        <mxCell id="UXfJRt7zyH2M72T4J1LY-23" value="" style="rounded=0;whiteSpace=wrap;html=1;" vertex="1" parent="1">
          <mxGeometry x="30" y="260" width="440" height="110" as="geometry" />
        </mxCell>
        <mxCell id="UXfJRt7zyH2M72T4J1LY-24" value="" style="rounded=0;whiteSpace=wrap;html=1;" vertex="1" parent="1">
          <mxGeometry x="30" y="400" width="440" height="110" as="geometry" />
        </mxCell>
        <mxCell id="UXfJRt7zyH2M72T4J1LY-25" value="" style="rounded=0;whiteSpace=wrap;html=1;" vertex="1" parent="1">
          <mxGeometry x="30" y="570" width="440" height="30" as="geometry" />
        </mxCell>
        <mxCell id="UXfJRt7zyH2M72T4J1LY-26" value="" style="whiteSpace=wrap;html=1;aspect=fixed;" vertex="1" parent="1">
          <mxGeometry x="580" y="140" width="140" height="140" as="geometry" />
        </mxCell>
        <mxCell id="UXfJRt7zyH2M72T4J1LY-27" value="" style="whiteSpace=wrap;html=1;aspect=fixed;" vertex="1" parent="1">
          <mxGeometry x="580" y="310" width="140" height="140" as="geometry" />
        </mxCell>
        <mxCell id="UXfJRt7zyH2M72T4J1LY-28" value="FORM" style="text;html=1;strokeColor=none;fillColor=none;align=center;verticalAlign=middle;whiteSpace=wrap;rounded=0;" vertex="1" parent="1">
          <mxGeometry x="630" y="150" width="40" height="20" as="geometry" />
        </mxCell>
        <mxCell id="UXfJRt7zyH2M72T4J1LY-29" value="PAY" style="text;html=1;strokeColor=none;fillColor=none;align=center;verticalAlign=middle;whiteSpace=wrap;rounded=0;" vertex="1" parent="1">
          <mxGeometry x="630" y="320" width="40" height="20" as="geometry" />
        </mxCell>
        <mxCell id="UXfJRt7zyH2M72T4J1LY-31" value="CAT PROD" style="text;html=1;strokeColor=none;fillColor=none;align=center;verticalAlign=middle;whiteSpace=wrap;rounded=0;" vertex="1" parent="1">
          <mxGeometry x="260" y="45" width="80" height="20" as="geometry" />
        </mxCell>
        <mxCell id="UXfJRt7zyH2M72T4J1LY-32" value="PAY" style="text;html=1;strokeColor=none;fillColor=none;align=center;verticalAlign=middle;whiteSpace=wrap;rounded=0;" vertex="1" parent="1">
          <mxGeometry x="374" y="45" width="40" height="20" as="geometry" />
        </mxCell>
        <mxCell id="UXfJRt7zyH2M72T4J1LY-33" value="LOGO" style="text;html=1;strokeColor=none;fillColor=none;align=center;verticalAlign=middle;whiteSpace=wrap;rounded=0;" vertex="1" parent="1">
          <mxGeometry x="70" y="60" width="80" height="20" as="geometry" />
        </mxCell>
        <mxCell id="UXfJRt7zyH2M72T4J1LY-34" value="OFERTAS" style="text;html=1;strokeColor=none;fillColor=none;align=center;verticalAlign=middle;whiteSpace=wrap;rounded=0;" vertex="1" parent="1">
          <mxGeometry x="60" y="140" width="80" height="20" as="geometry" />
        </mxCell>
        <mxCell id="UXfJRt7zyH2M72T4J1LY-35" value="CAT 1" style="text;html=1;strokeColor=none;fillColor=none;align=center;verticalAlign=middle;whiteSpace=wrap;rounded=0;" vertex="1" parent="1">
          <mxGeometry x="60" y="270" width="80" height="20" as="geometry" />
        </mxCell>
        <mxCell id="UXfJRt7zyH2M72T4J1LY-36" value="FOOTER" style="text;html=1;strokeColor=none;fillColor=none;align=center;verticalAlign=middle;whiteSpace=wrap;rounded=0;" vertex="1" parent="1">
          <mxGeometry x="200" y="575" width="80" height="20" as="geometry" />
        </mxCell>
      </root>
    </mxGraphModel>
  </diagram>
</mxfile>
